<svg width="50" height="50" viewBox="0 0 50 50" fill="none" xmlns="http://www.w3.org/2000/svg">
<path d="M25 10.7144C23.2341 10.7144 21.5078 11.238 20.0395 12.2191C18.5712 13.2002 17.4268 14.5946 16.7511 16.2261C16.0753 17.8576 15.8985 19.6528 16.243 21.3848C16.5875 23.1168 17.4379 24.7077 18.6865 25.9564C19.9352 27.2051 21.5261 28.0554 23.2581 28.3999C24.9901 28.7444 26.7853 28.5676 28.4168 27.8918C30.0483 27.2161 31.4427 26.0717 32.4238 24.6034C33.4049 23.1351 33.9286 21.4088 33.9286 19.6429C33.9286 17.2749 32.9879 15.0039 31.3134 13.3295C29.639 11.655 27.368 10.7144 25 10.7144ZM25 25.0001C23.9404 25.0001 22.9047 24.6859 22.0237 24.0972C21.1427 23.5086 20.4561 22.6719 20.0506 21.693C19.6452 20.7141 19.5391 19.637 19.7458 18.5978C19.9525 17.5586 20.4627 16.6041 21.2119 15.8549C21.9611 15.1056 22.9157 14.5954 23.9549 14.3887C24.994 14.182 26.0712 14.2881 27.0501 14.6936C28.029 15.099 28.8656 15.7857 29.4543 16.6667C30.0429 17.5476 30.3571 18.5834 30.3571 19.6429C30.3557 21.0633 29.7908 22.4251 28.7865 23.4294C27.7821 24.4338 26.4204 24.9986 25 25.0001Z" fill="#9C9C9C"/>
<path d="M25 0C20.0555 0 15.222 1.46622 11.1108 4.21326C6.99952 6.96029 3.79521 10.8648 1.90302 15.4329C0.0108321 20.0011 -0.484251 25.0277 0.480379 29.8772C1.44501 34.7268 3.82603 39.1813 7.32234 42.6777C10.8187 46.174 15.2732 48.555 20.1228 49.5196C24.9723 50.4842 29.9989 49.9892 34.5671 48.097C39.1352 46.2048 43.0397 43.0005 45.7867 38.8892C48.5338 34.778 50 29.9445 50 25C49.9924 18.3719 47.3561 12.0175 42.6693 7.33068C37.9825 2.64391 31.6281 0.007562 25 0ZM14.2857 43.5303V41.0714C14.2871 39.6511 14.852 38.2893 15.8564 37.2849C16.8607 36.2806 18.2225 35.7157 19.6429 35.7143H30.3571C31.7775 35.7157 33.1393 36.2806 34.1437 37.2849C35.148 38.2893 35.7129 39.6511 35.7143 41.0714V43.5303C32.4628 45.4289 28.7652 46.4294 25 46.4294C21.2348 46.4294 17.5372 45.4289 14.2857 43.5303ZM39.2714 40.9393C39.2358 38.597 38.2815 36.3625 36.6141 34.7171C34.9467 33.0717 32.6997 32.1473 30.3571 32.1428H19.6429C17.3003 32.1473 15.0533 33.0717 13.3859 34.7171C11.7185 36.3625 10.7642 38.597 10.7286 40.9393C7.4903 38.0478 5.20667 34.2408 4.18007 30.0226C3.15347 25.8044 3.43233 21.3738 4.97972 17.3176C6.52711 13.2614 9.27004 9.77083 12.8453 7.30815C16.4206 4.84547 20.6595 3.52683 25.0009 3.52683C29.3423 3.52683 33.5812 4.84547 37.1565 7.30815C40.7318 9.77083 43.4747 13.2614 45.0221 17.3176C46.5695 21.3738 46.8483 25.8044 45.8217 30.0226C44.7951 34.2408 42.5115 38.0478 39.2732 40.9393H39.2714Z" fill="#9C9C9C"/>
</svg>
