<svg width="105" height="105" viewBox="0 0 105 105" fill="none" xmlns="http://www.w3.org/2000/svg">
<path d="M93.3333 11.6666H11.6667C10.1196 11.6666 8.63584 12.2812 7.54188 13.3752C6.44792 14.4691 5.83334 15.9529 5.83334 17.5V87.5C5.83334 89.0471 6.44792 90.5308 7.54188 91.6247C8.63584 92.7187 10.1196 93.3333 11.6667 93.3333H93.3333C94.8804 93.3333 96.3642 92.7187 97.4581 91.6247C98.5521 90.5308 99.1667 89.0471 99.1667 87.5V17.5C99.1667 15.9529 98.5521 14.4691 97.4581 13.3752C96.3642 12.2812 94.8804 11.6666 93.3333 11.6666ZM11.6667 87.5V17.5H93.3333V87.5H11.6667Z" fill="#CCCCCC"/>
<path d="M26.0167 40.8334C27.7472 40.8334 29.439 40.3202 30.8779 39.3587C32.3168 38.3973 33.4383 37.0307 34.1006 35.4319C34.7629 33.833 34.9362 32.0737 34.5985 30.3763C34.2609 28.679 33.4276 27.1199 32.2038 25.8962C30.9801 24.6725 29.421 23.8391 27.7237 23.5015C26.0264 23.1639 24.267 23.3372 22.6682 23.9994C21.0693 24.6617 19.7028 25.7832 18.7413 27.2221C17.7798 28.6611 17.2667 30.3528 17.2667 32.0834C17.2667 34.404 18.1885 36.6296 19.8295 38.2706C21.4704 39.9115 23.696 40.8334 26.0167 40.8334ZM26.0167 27.4167C26.9409 27.4109 27.846 27.6797 28.6172 28.189C29.3885 28.6982 29.9912 29.425 30.3488 30.2772C30.7065 31.1294 30.8031 32.0686 30.6264 32.9758C30.4496 33.8829 30.0075 34.7172 29.356 35.3728C28.7045 36.0283 27.8731 36.4757 26.967 36.6581C26.061 36.8406 25.1212 36.7499 24.2668 36.3975C23.4124 36.0452 22.6818 35.4471 22.1677 34.679C21.6536 33.911 21.3792 33.0076 21.3792 32.0834C21.3868 30.8558 21.8779 29.6807 22.7459 28.8126C23.614 27.9446 24.7891 27.4535 26.0167 27.4459V27.4167Z" fill="#CCCCCC"/>
<path d="M66.4417 44.8292L50.6917 60.5792L39.025 48.9126C38.4785 48.3693 37.7393 48.0644 36.9687 48.0644C36.1982 48.0644 35.459 48.3693 34.9125 48.9126L17.2667 66.7917V75.0459L37.0708 55.2417L46.6667 64.6917L35.7292 75.6292H43.75L68.3958 50.9834L87.5 70.0001V61.7751L70.5542 44.8292C70.0077 44.286 69.2685 43.9811 68.4979 43.9811C67.7274 43.9811 66.9881 44.286 66.4417 44.8292Z" fill="#CCCCCC"/>
</svg>
